<svg width="167" height="24" viewBox="0 0 167 24" fill="none" xmlns="http://www.w3.org/2000/svg">
<path d="M0.16 23V0.649998H8.47C9.99 0.649998 11.33 0.929999 12.49 1.49C13.67 2.03 14.59 2.83 15.25 3.89C15.91 4.93 16.24 6.2 16.24 7.7C16.24 9.24 15.87 10.55 15.13 11.63C14.41 12.71 13.43 13.51 12.19 14.03L17.32 23H12.7L7.21 13.19L9.85 14.75H4.24V23H0.16ZM4.24 11.15H8.53C9.27 11.15 9.91 11.01 10.45 10.73C10.99 10.43 11.41 10.02 11.71 9.5C12.01 8.98 12.16 8.38 12.16 7.7C12.16 7 12.01 6.4 11.71 5.9C11.41 5.38 10.99 4.98 10.45 4.7C9.91 4.4 9.27 4.25 8.53 4.25H4.24V11.15ZM19.094 23V0.649998H33.944V4.25H23.174V9.98H33.344V13.58H23.174V19.4H33.944V23H19.094ZM36.0358 23V0.649998H39.2158L51.5158 17.21L49.8658 17.54V0.649998H53.9458V23H50.7358L38.6158 6.32L40.1158 5.99V23H36.0358ZM61.3321 23V4.25H55.5421V0.649998H71.1421V4.25H65.4421V23H61.3321ZM69.4077 23L77.1177 0.649998H82.3977L90.1077 23H85.6677L84.0777 18.2H75.4377L73.8177 23H69.4077ZM76.6077 14.6H82.9077L79.1877 3.47H80.3277L76.6077 14.6ZM91.6952 23V0.649998H95.7752V19.4H105.345V23H91.6952ZM116.998 23.36C115.398 23.36 113.918 23.07 112.558 22.49C111.218 21.91 110.038 21.1 109.018 20.06C108.018 19.02 107.238 17.8 106.678 16.4C106.118 15 105.838 13.47 105.838 11.81C105.838 10.15 106.108 8.62 106.648 7.22C107.208 5.8 107.988 4.58 108.988 3.56C110.008 2.52 111.198 1.72 112.558 1.16C113.918 0.579999 115.398 0.289999 116.998 0.289999C118.598 0.289999 120.028 0.559999 121.288 1.1C122.568 1.64 123.648 2.36 124.528 3.26C125.408 4.14 126.038 5.11 126.418 6.17L122.758 7.88C122.338 6.76 121.628 5.84 120.628 5.12C119.628 4.38 118.418 4.01 116.998 4.01C115.598 4.01 114.358 4.34 113.278 5C112.218 5.66 111.388 6.57 110.788 7.73C110.208 8.89 109.918 10.25 109.918 11.81C109.918 13.37 110.208 14.74 110.788 15.92C111.388 17.08 112.218 17.99 113.278 18.65C114.358 19.31 115.598 19.64 116.998 19.64C118.418 19.64 119.628 19.28 120.628 18.56C121.628 17.82 122.338 16.89 122.758 15.77L126.418 17.48C126.038 18.54 125.408 19.52 124.528 20.42C123.648 21.3 122.568 22.01 121.288 22.55C120.028 23.09 118.598 23.36 116.998 23.36ZM127.001 23L134.711 0.649998H139.991L147.701 23H143.261L141.671 18.2H133.031L131.411 23H127.001ZM134.201 14.6H140.501L136.781 3.47H137.921L134.201 14.6ZM149.288 23V0.649998H157.598C159.118 0.649998 160.458 0.929999 161.618 1.49C162.798 2.03 163.718 2.83 164.378 3.89C165.038 4.93 165.368 6.2 165.368 7.7C165.368 9.24 164.998 10.55 164.258 11.63C163.538 12.71 162.558 13.51 161.318 14.03L166.448 23H161.828L156.338 13.19L158.978 14.75H153.368V23H149.288ZM153.368 11.15H157.658C158.398 11.15 159.038 11.01 159.578 10.73C160.118 10.43 160.538 10.02 160.838 9.5C161.138 8.98 161.288 8.38 161.288 7.7C161.288 7 161.138 6.4 160.838 5.9C160.538 5.38 160.118 4.98 159.578 4.7C159.038 4.4 158.398 4.25 157.658 4.25H153.368V11.15Z" fill="#3563E9"/>
</svg>
