<svg width="18" height="16" viewBox="0 0 18 16" fill="none" xmlns="http://www.w3.org/2000/svg">
<path fill-rule="evenodd" clip-rule="evenodd" d="M8.16664 0.658334C8.22421 0.475798 8.33846 0.316366 8.49281 0.203195C8.64717 0.0900239 8.83358 0.029007 9.02498 0.029007C9.21637 0.029007 9.40279 0.0900239 9.55714 0.203195C9.71149 0.316366 9.82575 0.475798 9.88331 0.658334L11.4333 5.425H16.4333C16.6315 5.4175 16.8268 5.47512 16.9892 5.58903C17.1516 5.70295 17.2723 5.8669 17.3327 6.05585C17.3932 6.24479 17.3902 6.44833 17.324 6.63538C17.2579 6.82242 17.1324 6.98268 16.9666 7.09167L12.9083 10.0333L14.4583 14.8083C14.5196 14.9902 14.5212 15.1869 14.4627 15.3698C14.4043 15.5526 14.2889 15.712 14.1335 15.8246C13.9781 15.9372 13.7907 15.9972 13.5988 15.9957C13.4068 15.9943 13.2204 15.9316 13.0666 15.8167L8.99998 12.8417L4.94164 15.7917C4.7879 15.9066 4.60145 15.9693 4.40951 15.9707C4.21758 15.9722 4.03022 15.9122 3.87479 15.7996C3.71936 15.687 3.604 15.5276 3.54557 15.3448C3.48713 15.1619 3.48868 14.9652 3.54998 14.7833L5.09998 10.0083L1.04164 7.06667C0.875879 6.95768 0.750352 6.79742 0.684243 6.61038C0.618134 6.42334 0.615077 6.21979 0.675539 6.03085C0.736001 5.8419 0.856658 5.67795 1.01907 5.56403C1.18149 5.45012 1.37673 5.3925 1.57498 5.4H6.57498L8.16664 0.658334Z" fill="#FBAD39"/>
</svg>
